<?xml version="1.0" encoding="utf-8"?>
<!-- Generator: Adobe Illustrator 20.0.0, SVG Export Plug-In . SVG Version: 6.00 Build 0)  -->
<svg version="1.1" id="圖層_1" xmlns="http://www.w3.org/2000/svg" xmlns:xlink="http://www.w3.org/1999/xlink" x="0px" y="0px"
	 viewBox="0 0 32 32" style="enable-background:new 0 0 32 32;" xml:space="preserve">
<style type="text/css">
	.st0{fill:#FFFFFF;}
</style>
<path class="st0" d="M16,0C7.2,0,0,7.2,0,16c0,8.8,7.2,16,16,16s16-7.2,16-16C32,7.2,24.8,0,16,0z M6.5,12.1l5.2,3.2l-5.2,6.5V12.1z
	 M7.1,22.5l5.4-6.7l3.5,2.1l3.5-2.2l5.4,6.8H7.1z M25.5,21.8l-5.2-6.6l5.2-3.2V21.8z M25.5,11L16,16.9l-9.5-5.8V9.5h19V11z"/>
</svg>
