<?xml version="1.0" encoding="utf-8"?>
<!-- Generator: Adobe Illustrator 20.0.0, SVG Export Plug-In . SVG Version: 6.00 Build 0)  -->
<svg version="1.1" id="圖層_1" xmlns="http://www.w3.org/2000/svg" xmlns:xlink="http://www.w3.org/1999/xlink" x="0px" y="0px"
	 viewBox="0 0 191.3 100.7" style="enable-background:new 0 0 191.3 100.7;" xml:space="preserve">
<style type="text/css">
	.st0{fill:#FFFFFF;}
	.st1{fill:none;stroke:#FFFFFF;stroke-miterlimit:10;}
</style>
<g>
	<g>
		<path class="st0" d="M84.7,14.4v9.4h1.8v1.8h-1.8v2.8h-2v-2.8h-6.8v-1.8c1.7-3.1,3.8-6.3,5.7-9.4H84.7z M82.7,23.8v-7.7h-0.1
			c-1.6,2.4-3.3,5.1-4.7,7.6v0H82.7z"/>
		<path class="st0" d="M88.3,13.5h1.2v1.6h1.2v1h-1.2v3.5c0,0.7,0.3,0.9,1,0.9c0.1,0,0.2,0,0.3,0v0.9c-0.1,0-0.3,0-0.6,0
			c-1.5,0-1.9-0.6-1.9-1.8V16h-0.9v-1h0.9V13.5z"/>
		<path class="st0" d="M92.1,12.8h1.2v3.1h0c0.2-0.4,0.7-1,1.8-1c1.4,0,2.3,1,2.3,2.5v4h-1.2v-3.7c0-1-0.5-1.7-1.4-1.7
			s-1.5,0.6-1.5,1.7v3.7h-1.2V12.8z"/>
		<path class="st0" d="M113.9,18.6c0,2.3-1.4,3.5-2.6,3.9l2.8,5.8h-2.4l-2.5-5.5h-3.1v5.5H104v-14h5.2
			C112.4,14.4,113.9,16.3,113.9,18.6z M108.9,21.2c1.8,0,2.8-0.9,2.8-2.5c0-1.7-1.1-2.6-2.7-2.6h-2.9v5H108.9z"/>
		<path class="st0" d="M125.5,22.5v0.8c0,3.1-1.5,5.2-4.7,5.2s-4.7-2.1-4.7-5.2v-0.8c0-2.9,1.5-5.2,4.7-5.2S125.5,19.5,125.5,22.5z
			 M118,22.6v0.6c0,1.9,0.6,3.6,2.7,3.6s2.6-1.7,2.6-3.6v-0.6c0-1.9-0.6-3.6-2.6-3.6S118,20.8,118,22.6z"/>
		<path class="st0" d="M128.4,14.9h2v2.7h2.1v1.7h-2.1v6c0,1.2,0.4,1.6,1.7,1.6c0.2,0,0.4,0,0.5,0v1.6c-0.2,0-0.6,0.1-1,0.1
			c-2.6,0-3.2-1-3.2-3.1v-6.1h-1.5v-1.7h1.5V14.9z"/>
		<path class="st0" d="M134.3,23.5v-1c0-3,1.6-5.1,4.6-5.1c3,0,4.6,2.1,4.6,5.1v0.9h-7.1v0.3c0,1.6,0.8,3.1,2.6,3.1
			c1.4,0,2.1-0.7,2.2-1.5h2.1c-0.2,1.4-1.4,3.2-4.3,3.2C135.9,28.5,134.3,26.5,134.3,23.5z M141.3,21.9L141.3,21.9
			c0-1.7-0.9-2.9-2.5-2.9c-1.6,0-2.5,1.2-2.5,2.9v0H141.3z"/>
		<path class="st0" d="M149.4,24.4L149.4,24.4l-2.5,3.9h-2.3l3.5-5.4l-3.6-5.5h2.4l2.4,3.9h0.1l2.4-3.9h2.3l-3.6,5.3l3.6,5.5h-2.4
			L149.4,24.4z"/>
		<path class="st0" d="M76.7,49.3v-14h2.1v14H76.7z"/>
		<path class="st0" d="M81.9,38.5h2V40H84c0.4-0.8,1.5-1.6,3.1-1.6c2.2,0,3.8,1.3,3.8,3.8v7.2h-2.1v-6.5c0-1.9-0.9-2.7-2.4-2.7
			c-1.6,0-2.5,1-2.5,2.8v6.4h-2.1V38.5z"/>
		<path class="st0" d="M94.4,35.9h2v2.7h2.1v1.7h-2.1v6c0,1.2,0.4,1.6,1.7,1.6c0.2,0,0.4,0,0.5,0v1.6c-0.2,0-0.6,0.1-1,0.1
			c-2.6,0-3.2-1-3.2-3.1v-6.1h-1.5v-1.7h1.5V35.9z"/>
		<path class="st0" d="M100.2,44.5v-1c0-3,1.6-5.1,4.6-5.1c3,0,4.6,2.1,4.6,5.1v0.9h-7.1v0.3c0,1.6,0.8,3.1,2.6,3.1
			c1.4,0,2.1-0.7,2.2-1.5h2.1c-0.2,1.4-1.4,3.2-4.3,3.2C101.8,49.5,100.2,47.5,100.2,44.5z M107.3,42.9L107.3,42.9
			c0-1.7-0.9-2.9-2.5-2.9c-1.6,0-2.5,1.2-2.5,2.9v0H107.3z"/>
		<path class="st0" d="M111.9,38.5h2.1v1.3h0.1c0.3-0.7,0.8-1.5,2.6-1.5c0.3,0,0.5,0,0.7,0.1v1.9c-0.2,0-0.6-0.1-0.9-0.1
			c-1.9,0-2.5,1.1-2.5,2.6v6.6h-2.1V38.5z"/>
		<path class="st0" d="M119.2,38.5h2V40h0.1c0.4-0.8,1.5-1.6,3.1-1.6c2.2,0,3.8,1.3,3.8,3.8v7.2h-2.1v-6.5c0-1.9-0.9-2.7-2.4-2.7
			c-1.6,0-2.5,1-2.5,2.8v6.4h-2.1V38.5z"/>
		<path class="st0" d="M134.1,49.5c-2.1,0-3.5-1.3-3.5-3.3c0-1.9,1.3-3.2,3.8-3.2h2.8v-1.2c0-1.3-0.7-1.8-2.1-1.8
			c-1.4,0-2,0.6-2.1,1.6h-2c0.1-1.9,1.3-3.3,4.2-3.3c2.5,0,4.1,1,4.1,3.5v7.5h-2v-1.4h-0.1C136.7,48.8,135.7,49.5,134.1,49.5z
			 M137.2,45.7v-1.1h-2.5c-1.4,0-2,0.7-2,1.6c0,1.2,1,1.7,2,1.7C136.1,47.9,137.2,46.9,137.2,45.7z"/>
		<path class="st0" d="M142.7,35.9h2v2.7h2.1v1.7h-2.1v6c0,1.2,0.4,1.6,1.7,1.6c0.2,0,0.4,0,0.5,0v1.6c-0.2,0-0.6,0.1-1,0.1
			c-2.6,0-3.2-1-3.2-3.1v-6.1h-1.5v-1.7h1.5V35.9z"/>
		<path class="st0" d="M150.4,34.7c0.8,0,1.3,0.5,1.3,1.2c0,0.7-0.5,1.2-1.3,1.2c-0.7,0-1.3-0.5-1.3-1.2
			C149.1,35.2,149.7,34.7,150.4,34.7z M149.4,38.5h2.1v10.8h-2.1V38.5z"/>
		<path class="st0" d="M163.7,43.5v0.8c0,3.1-1.5,5.2-4.7,5.2s-4.7-2.1-4.7-5.2v-0.8c0-2.9,1.5-5.2,4.7-5.2S163.7,40.5,163.7,43.5z
			 M156.2,43.6v0.6c0,1.9,0.6,3.6,2.7,3.6s2.6-1.7,2.6-3.6v-0.6c0-1.9-0.6-3.6-2.6-3.6S156.2,41.8,156.2,43.6z"/>
		<path class="st0" d="M166.1,38.5h2V40h0.1c0.4-0.8,1.5-1.6,3.1-1.6c2.2,0,3.8,1.3,3.8,3.8v7.2h-2.1v-6.5c0-1.9-0.9-2.7-2.4-2.7
			c-1.6,0-2.5,1-2.5,2.8v6.4h-2.1V38.5z"/>
		<path class="st0" d="M181.1,49.5c-2.1,0-3.5-1.3-3.5-3.3c0-1.9,1.3-3.2,3.8-3.2h2.8v-1.2c0-1.3-0.7-1.8-2.1-1.8
			c-1.4,0-2,0.6-2.1,1.6h-2c0.1-1.9,1.3-3.3,4.2-3.3c2.5,0,4.1,1,4.1,3.5v7.5h-2v-1.4h-0.1C183.7,48.8,182.7,49.5,181.1,49.5z
			 M184.1,45.7v-1.1h-2.5c-1.4,0-2,0.7-2,1.6c0,1.2,1,1.7,2,1.7C183.1,47.9,184.1,46.9,184.1,45.7z"/>
		<path class="st0" d="M189.2,34.6h2.1v14.7h-2.1V34.6z"/>
		<path class="st0" d="M78.2,64.3c0,3.1,1.4,4.5,3.5,4.5c2.1,0,3.2-1.3,3.2-2.8H87v0.1c0,2.1-1.7,4.6-5.3,4.6
			c-3.4,0-5.6-2.2-5.6-6.4v-1.8c0-4.2,2.2-6.4,5.6-6.4c3.4,0,5.3,2.4,5.3,4.8V61h-2.1c0-1.5-1.1-3-3.2-3c-2.1,0-3.5,1.5-3.5,4.6
			V64.3z"/>
		<path class="st0" d="M98.4,64.5v0.8c0,3.1-1.5,5.2-4.7,5.2s-4.7-2.1-4.7-5.2v-0.8c0-2.9,1.5-5.2,4.7-5.2S98.4,61.5,98.4,64.5z
			 M91,64.6v0.6c0,1.9,0.6,3.6,2.7,3.6s2.6-1.7,2.6-3.6v-0.6c0-1.9-0.6-3.6-2.6-3.6S91,62.8,91,64.6z"/>
		<path class="st0" d="M100.9,59.5h2V61h0.1c0.4-0.8,1.5-1.6,3.1-1.6c2.2,0,3.8,1.3,3.8,3.8v7.2h-2.1v-6.5c0-1.9-0.9-2.7-2.4-2.7
			c-1.6,0-2.5,1-2.5,2.8v6.4h-2.1V59.5z"/>
		<path class="st0" d="M111.4,59.5h2.3l2.5,8.7h0.1l2.7-8.7h2.2l-3.9,10.8h-2.2L111.4,59.5z"/>
		<path class="st0" d="M122.3,65.5v-1c0-3,1.6-5.1,4.6-5.1c3,0,4.6,2.1,4.6,5.1v0.9h-7.1v0.3c0,1.6,0.8,3.1,2.6,3.1
			c1.4,0,2.1-0.7,2.2-1.5h2.1c-0.2,1.4-1.4,3.2-4.3,3.2C123.9,70.5,122.3,68.5,122.3,65.5z M129.3,63.9L129.3,63.9
			c0-1.7-0.9-2.9-2.5-2.9c-1.6,0-2.5,1.2-2.5,2.9v0H129.3z"/>
		<path class="st0" d="M133.8,59.5h2V61h0.1c0.4-0.8,1.5-1.6,3.1-1.6c2.2,0,3.8,1.3,3.8,3.8v7.2h-2.1v-6.5c0-1.9-0.9-2.7-2.4-2.7
			c-1.6,0-2.5,1-2.5,2.8v6.4h-2.1V59.5z"/>
		<path class="st0" d="M146.3,56.9h2v2.7h2.1v1.7h-2.1v6c0,1.2,0.4,1.6,1.7,1.6c0.2,0,0.4,0,0.5,0v1.6c-0.2,0-0.6,0.1-1,0.1
			c-2.6,0-3.2-1-3.2-3.1v-6.1h-1.5v-1.7h1.5V56.9z"/>
		<path class="st0" d="M154,55.7c0.8,0,1.3,0.5,1.3,1.2c0,0.7-0.5,1.2-1.3,1.2c-0.7,0-1.3-0.5-1.3-1.2
			C152.8,56.2,153.3,55.7,154,55.7z M153,59.5h2.1v10.8H153V59.5z"/>
		<path class="st0" d="M167.3,64.5v0.8c0,3.1-1.5,5.2-4.7,5.2s-4.7-2.1-4.7-5.2v-0.8c0-2.9,1.5-5.2,4.7-5.2S167.3,61.5,167.3,64.5z
			 M159.9,64.6v0.6c0,1.9,0.6,3.6,2.7,3.6s2.6-1.7,2.6-3.6v-0.6c0-1.9-0.6-3.6-2.6-3.6S159.9,62.8,159.9,64.6z"/>
		<path class="st0" d="M169.8,59.5h2V61h0.1c0.4-0.8,1.5-1.6,3.1-1.6c2.2,0,3.8,1.3,3.8,3.8v7.2h-2.1v-6.5c0-1.9-0.9-2.7-2.4-2.7
			c-1.6,0-2.5,1-2.5,2.8v6.4h-2.1V59.5z"/>
		<path class="st0" d="M79.7,91.3V78.6h-4.5v-1.2h10.2v1.2H81v12.8H79.7z"/>
		<path class="st0" d="M89.2,91.5c-2.1,0-3.5-1.3-3.5-3.2c0-1.8,1.3-3.1,3.7-3.1h3v-1.4c0-1.5-1-2.2-2.5-2.2c-1.7,0-2.4,0.8-2.5,1.8
			h-1.3c0.1-1.7,1.3-3,3.8-3c2.3,0,3.8,1,3.8,3.3v7.5h-1.3v-1.6h0C92,90.6,91,91.5,89.2,91.5z M92.5,87.7v-1.4h-3
			c-1.7,0-2.4,0.8-2.4,1.9c0,1.4,1.1,2.1,2.4,2.1C91.2,90.4,92.5,89.3,92.5,87.7z"/>
		<path class="st0" d="M97.9,77c0.5,0,0.9,0.4,0.9,0.9s-0.4,0.9-0.9,0.9c-0.5,0-0.9-0.4-0.9-0.9S97.4,77,97.9,77z M97.3,80.7h1.3
			v10.7h-1.3V80.7z"/>
		<path class="st0" d="M103.5,89.7L103.5,89.7l0,5.3h-1.3V80.6h1.2v1.7h0c0.3-0.8,1.4-1.9,3.4-1.9c2.4,0,4.1,1.8,4.1,4.7v1.7
			c0,3-1.8,4.7-4.2,4.7C104.8,91.5,103.9,90.5,103.5,89.7z M109.6,86.6v-1.3c0-2.4-1.2-3.7-3.1-3.7c-2,0-3.1,1.6-3.1,3.6v1.5
			c0,2,1.2,3.7,3.2,3.7C108.3,90.4,109.6,89.2,109.6,86.6z"/>
		<path class="st0" d="M113.2,86.6v-1c0-3,1.5-5.1,4.3-5.1c2.8,0,4.3,2,4.3,5v0.7h-7.3v0.4c0,2.1,1,3.7,3.1,3.7c1.7,0,2.5-1,2.6-1.8
			h1.4c-0.2,1.3-1.3,3-4,3C114.7,91.5,113.2,89.5,113.2,86.6z M120.4,85.2L120.4,85.2c0-2.1-1.1-3.5-3-3.5s-3,1.4-3,3.5v0H120.4z"/>
		<path class="st0" d="M125.4,77c0.5,0,0.9,0.4,0.9,0.9s-0.4,0.9-0.9,0.9c-0.5,0-0.9-0.4-0.9-0.9S124.9,77,125.4,77z M124.7,80.7
			h1.3v10.7h-1.3V80.7z"/>
		<path class="st0" d="M133.5,81.1L133.5,81.1c0-2.1,1.5-4,4.3-4c2.6,0,4.2,1.7,4.2,3.8c0,1.7-1.1,2.9-2.3,4.3l-4.3,5v0h6.8v1.2
			h-8.7v-0.9l5.4-6.2c0.8-0.9,1.7-2,1.7-3.4c0-1.5-1.1-2.6-2.9-2.6c-1.9,0-2.9,1.3-2.9,2.8v0.1H133.5z"/>
		<path class="st0" d="M144.4,83.8c0-4.2,1.7-6.8,4.7-6.8c3,0,4.7,2.5,4.7,6.8v1.1c0,4.2-1.7,6.7-4.7,6.7c-3,0-4.7-2.5-4.7-6.7V83.8
			z M145.8,84.9c0,3.6,1.3,5.6,3.4,5.6c2.1,0,3.4-2,3.4-5.6v-1.1c0-3.6-1.3-5.6-3.4-5.6c-2.1,0-3.4,2-3.4,5.6V84.9z"/>
		<path class="st0" d="M159.4,91.3V78.9h0c-0.5,0.3-2.7,1.7-3.4,2.1v-1.4c0.7-0.5,2.7-1.8,3.5-2.2h1.2v14H159.4z"/>
		<path class="st0" d="M163.9,87.6c0-2.3,1.8-3.4,2.9-3.6v0c-1-0.3-2.4-1.3-2.4-3.2c0-2.1,1.8-3.7,4.3-3.7c2.5,0,4.3,1.5,4.3,3.7
			c0,1.9-1.5,2.9-2.4,3.2v0c1.2,0.3,2.9,1.4,2.9,3.6c0,2.4-2.1,4.1-4.8,4.1C165.9,91.7,163.9,90,163.9,87.6z M172.2,87.5
			c0-1.7-1.5-3-3.5-3c-2,0-3.5,1.2-3.5,3c0,1.8,1.5,3,3.5,3S172.2,89.3,172.2,87.5z M171.7,80.8c0-1.6-1.3-2.6-3-2.6
			c-1.7,0-3,1-3,2.6c0,1.5,1.3,2.6,3,2.6C170.5,83.5,171.7,82.4,171.7,80.8z"/>
	</g>
	<line class="st1" x1="63.5" y1="12.3" x2="63.5" y2="91.2"/>
	<g>
		<path class="st0" d="M19.3,50.9c1.3,0.5,2.6,0.4,4.2-0.5c1.5-0.8,2.4-1.9,2.6-3.3c0.2-1.3,0-2.7-0.8-4c-0.7-1.3-1.7-2.2-3-2.7
			c-1.3-0.5-2.7-0.4-4.2,0.5c-1.5,0.8-2.4,1.9-2.6,3.3c-0.2,1.4,0,2.7,0.8,4C17.1,49.4,18.1,50.3,19.3,50.9z M18.1,44.4
			c0.1-0.7,0.5-1.2,1.1-1.6c0.7-0.4,1.3-0.4,2-0.1c0.6,0.3,1.2,0.9,1.7,1.8c0.5,0.9,0.7,1.7,0.6,2.4c-0.1,0.7-0.5,1.2-1.1,1.6
			c-0.7,0.4-1.3,0.4-2,0.1c-0.6-0.3-1.2-0.9-1.7-1.8C18.2,45.9,18,45.1,18.1,44.4z"/>
		<path class="st0" d="M35.8,31.7c-0.8,0.1-1.5,0.3-2.3,0.7c-1.3,0.7-2.1,1.7-2.5,3c-0.3,1.3-0.1,2.7,0.8,4.2c0.9,1.7,2,2.6,3.3,2.8
			c1.3,0.2,2.5,0,3.7-0.6c1.4-0.8,2.3-1.8,2.6-3.1c0.2-0.8,0.2-1.5,0-2.1L39,37.9c0,0.3,0,0.6-0.1,0.9c-0.2,0.5-0.5,0.8-1,1.1
			c-0.5,0.3-1,0.4-1.5,0.4c-0.8,0-1.4-0.5-2-1.4l6.4-3.6c-0.4-0.8-0.8-1.4-1.1-1.7c-0.5-0.6-1.1-1.1-1.7-1.5
			C37.3,31.8,36.6,31.6,35.8,31.7z M33.6,37.3c-0.2-0.6-0.3-1.2-0.2-1.7c0.1-0.5,0.5-0.9,1.1-1.3c0.5-0.3,1.1-0.4,1.6-0.3
			c0.5,0.1,1,0.5,1.4,1.1L33.6,37.3z"/>
		<path class="st0" d="M19,29.8l1.6-0.9c-0.3-0.4-0.4-0.9-0.3-1.2c0-0.4,0.3-0.7,0.7-0.9c0.4-0.2,0.7-0.3,1-0.2
			c0.3,0.1,0.6,0.3,0.8,0.7c0.3,0.5,0.3,1,0,1.4c-0.2,0.2-0.5,0.5-1.1,0.9l0.7,1.3c0.6-0.3,1-0.5,1.4-0.6c0.6-0.1,1.1,0.2,1.4,0.8
			c0.3,0.5,0.3,0.9,0.2,1.3c-0.1,0.4-0.3,0.7-0.7,0.9c-0.6,0.3-1.1,0.3-1.5,0c-0.3-0.2-0.5-0.4-0.7-0.8l-1.7,1
			c0.4,0.7,0.9,1.2,1.4,1.5c0.4,0.2,0.8,0.4,1.3,0.4l1.3,2.4l-1.2,0.7l0.9,1.7l1.2-0.7l3.1,5.5c0.3,0.6,0.7,0.9,1.1,1
			c0.6,0.2,1.5,0,2.5-0.7l1.1-0.6l-1-1.8c-0.1,0-0.1,0.1-0.2,0.1c-0.1,0-0.1,0.1-0.2,0.1c-0.5,0.3-0.8,0.4-0.9,0.3
			c-0.1,0-0.3-0.2-0.5-0.6L28,38l1.4-0.8l-0.9-1.7l-1.4,0.8l-1.1-2c0.8-0.5,1.2-1.2,1.4-1.9c0.2-0.9,0.1-1.7-0.4-2.5
			c-0.4-0.7-1-1.2-1.7-1.3c-0.5-0.1-0.8-0.1-0.9,0c0.2-0.2,0.3-0.5,0.3-0.8c0.1-0.5,0-1.1-0.3-1.6c-0.4-0.8-1-1.2-1.8-1.4
			c-0.8-0.1-1.6,0-2.4,0.5c-0.5,0.3-0.8,0.5-1.1,0.8c-0.2,0.3-0.4,0.6-0.5,1c-0.1,0.5-0.2,0.9-0.1,1.4C18.5,28.9,18.7,29.4,19,29.8z
			"/>
		<path class="st0" d="M31.7,28.1l1.1,1.9l1.7-1l-1.1-1.9l1-0.6l-0.8-1.4l-1,0.6l-3.3-5.7l-2,1.1l-0.1,7.4l0.9,1.6L31.7,28.1z
			 M30.9,26.7L28.7,28l0-5.2L30.9,26.7z"/>
		<path class="st0" d="M39.9,19.9c-0.7-1.1-1.3-2-2-2.5c-1.2-0.9-2.5-1-3.8-0.2c-0.9,0.5-1.4,1.2-1.6,2.1c-0.2,0.9,0,1.9,0.5,2.8
			c0.5,0.9,1.2,1.5,2.1,1.7c0.8,0.2,1.6,0.1,2.3-0.3c0.5-0.3,0.8-0.6,1-1c0.1-0.2,0.2-0.5,0.2-0.8c0.4,0.7,0.6,1.3,0.7,1.7
			c0.1,0.8-0.1,1.3-0.6,1.7c-0.3,0.2-0.6,0.2-0.9,0.2c-0.3-0.1-0.5-0.2-0.7-0.5l-1.7,1c0.5,0.7,1.2,1.1,1.9,1.2
			c0.8,0.1,1.5,0,2.1-0.4c1.4-0.8,2-2.1,1.7-3.8C40.9,22,40.5,21,39.9,19.9z M37.4,21.2c-0.1,0.3-0.3,0.5-0.6,0.6
			c-0.4,0.3-0.9,0.3-1.2,0.2c-0.4-0.1-0.7-0.5-1-1c-0.4-0.6-0.5-1.2-0.3-1.6c0.1-0.3,0.3-0.5,0.6-0.7c0.4-0.2,0.8-0.3,1.2-0.1
			c0.4,0.2,0.8,0.5,1.1,1C37.6,20.2,37.7,20.8,37.4,21.2z"/>
		<path class="st0" d="M44.2,13c-0.9-0.5-2-0.5-3.1,0.2c-1.1,0.7-1.7,1.5-1.7,2.6c0,1.1,0.5,2.4,1.3,3.9c0.9,1.5,1.8,2.5,2.7,3.1
			c0.9,0.5,1.9,0.5,3.1-0.2c1.1-0.7,1.7-1.5,1.7-2.6c0-1.1-0.4-2.4-1.3-3.9C46,14.5,45.2,13.5,44.2,13z M45.7,21
			c-0.5,0.3-1,0.2-1.5-0.2c-0.5-0.5-1-1.2-1.6-2.2c-0.6-1.1-1-1.9-1.1-2.6c-0.1-0.6,0.1-1.1,0.6-1.4c0.5-0.3,1-0.2,1.5,0.2
			c0.5,0.4,1,1.2,1.6,2.3c0.6,1,1,1.9,1.1,2.5C46.4,20.2,46.2,20.7,45.7,21z"/>
		<rect x="12.8" y="70.5" transform="matrix(0.866 -0.5001 0.5001 0.866 -33.8788 16.3853)" class="st0" width="1.7" height="1.8"/>
		<path class="st0" d="M16.3,68.6l6.4-3.7l0.4,0.8l1.2-0.7l-3-5.2l-8.7,5l3,5.2l1.2-0.7L16.3,68.6z M14.4,65.2l6.4-3.7l1.4,2.3
			l-6.4,3.7L14.4,65.2z"/>
		<path class="st0" d="M21.1,59.4l0.4-1.4c-1.5-0.8-3.2-1.5-5.1-2.2L16,57.1c0.9,0.3,1.8,0.6,2.6,1c-1.6,1.3-3.3,2.5-5.1,3.5
			c-0.1,0.1-0.3,0.2-0.6,0.3c0.3-1.4,0.3-3.1,0.3-5l-1.4,0.2c0.2,2.2,0.1,4-0.1,5.4c-0.3,0.2-0.7,0.3-1.2,0.5l1,1.2
			c3.4-2,6.2-3.9,8.4-5.6C20.3,58.9,20.7,59.1,21.1,59.4z"/>
		<path class="st0" d="M22,73.3l0.5-0.5c-0.4-0.5-0.8-0.9-1.2-1.2l-0.5,0.5c0.1,0.1,0.2,0.2,0.3,0.3c-0.2,0.1-0.3,0.3-0.6,0.5
			c0.1-0.8,0-1.8,0-2.9l0.2,0.3l3.1-1.8l-0.4-0.7l-1.1,0.6c-0.3-0.2-0.5-0.4-0.8-0.5l-0.8,0.6c0.3,0.1,0.5,0.3,0.8,0.4l-1.2,0.7
			l0.2,0.4L19.9,70c0,0.4,0,0.8,0,1.2c-0.2,0.1-0.3,0.2-0.5,0.3c0-0.5-0.1-1.2-0.2-2l-0.9,0.1c0.2,0.9,0.3,1.7,0.3,2.3l-0.4,0.2
			l0.5,0.7c0.4-0.3,0.8-0.6,1.1-0.8c0,0.5-0.1,1-0.2,1.5c-0.2,0.1-0.3,0.2-0.5,0.3l0.5,0.7c0.9-0.7,1.6-1.2,2-1.6
			C21.8,73.1,21.9,73.2,22,73.3z"/>
		<path class="st0" d="M21.1,76.1c-0.1-0.5-0.2-1.1-0.3-1.7l-0.7,0.2c0.2,0.6,0.3,1.1,0.3,1.6L21.1,76.1z"/>
		<polygon class="st0" points="21.6,71.1 24.1,69.6 23.8,69.1 21.3,70.5 		"/>
		<rect x="21.8" y="70.7" transform="matrix(0.866 -0.5 0.5 0.866 -32.422 21.1627)" class="st0" width="2.9" height="0.7"/>
		<path class="st0" d="M24.9,70.7l0.5,0.7c0.9-0.7,1.6-1.2,2.1-1.6c0.1,0.1,0.2,0.2,0.3,0.3l0.6-0.5c-0.5-0.5-0.9-1-1.3-1.3
			l-0.5,0.5c0.2,0.2,0.3,0.3,0.5,0.5c-0.2,0.2-0.5,0.4-0.8,0.6c0.2-0.9,0.3-1.9,0.4-3l-0.9,0.1c0,0.3,0,0.7,0,1
			c-0.2,0.1-0.4,0.2-0.6,0.3c0-0.5-0.1-1.2-0.2-2L24,66.5c0.2,0.9,0.3,1.7,0.3,2.3L23.9,69l0.5,0.7c0.5-0.3,0.9-0.6,1.2-0.8
			c0,0.6-0.1,1.1-0.2,1.5C25.2,70.4,25.1,70.5,24.9,70.7z"/>
		<path class="st0" d="M22.5,72.5l1.1,2l2.4-1.4l-1.1-2L22.5,72.5z M23.9,73.4l-0.4-0.6l1-0.6l0.4,0.6L23.9,73.4z"/>
		<path class="st0" d="M25.7,71.5c0.2,0.6,0.4,1.1,0.4,1.5l0.8-0.1c-0.1-0.5-0.3-1.1-0.5-1.6L25.7,71.5z"/>
		<path class="st0" d="M22.2,73.3l-0.4,0.4c0.4,0.3,0.7,0.7,1.1,1.1l0.5-0.5C23,74,22.6,73.6,22.2,73.3z"/>
		<path class="st0" d="M28.2,69.9l-0.5,0.6c0.4,0.4,0.7,0.7,1.1,1.2l0.6-0.6C28.9,70.6,28.5,70.2,28.2,69.9z"/>
		<path class="st0" d="M21.5,74l-0.5,0.4c0.3,0.3,0.6,0.7,0.9,1.3l0.6-0.4C22.1,74.6,21.8,74.2,21.5,74z"/>
		<path class="st0" d="M18.1,71.6c-0.7-0.1-1.4-0.2-2.2-0.2l-0.1,1.2c0.7,0,1.4,0.1,2.1,0.4L18.1,71.6z"/>
		<path class="st0" d="M17.2,74.6l-0.1,1.2c0.7,0,1.5,0.1,2.3,0.3l0.1-1.4C18.8,74.6,18,74.5,17.2,74.6z"/>
		<path class="st0" d="M19.6,76.8c0.7,2,1.1,3.8,1.4,5.2l1.3,0.3c-0.2-1.6-0.7-3.5-1.4-5.6L19.6,76.8z"/>
		<path class="st0" d="M27.3,70.6L26.7,71c0.2,0.3,0.5,0.7,0.9,1.3l0.7-0.5C27.9,71.3,27.6,70.9,27.3,70.6z"/>
		<polygon class="st0" points="19.5,54.2 23.4,56.5 24.6,58.6 25.7,57.9 24.5,55.9 24.4,51.4 23.1,52.1 23.4,55.1 20.9,53.4 		"/>
		<path class="st0" d="M27.5,56.2c0.6,0.2,1.2,0.1,1.9-0.3c0.7-0.4,1.1-0.9,1.2-1.5c0.1-0.6,0-1.2-0.4-1.8c-0.3-0.6-0.8-1-1.4-1.2
			c-0.6-0.2-1.2-0.1-1.9,0.3c-0.7,0.4-1.1,0.9-1.2,1.5c-0.1,0.6,0,1.2,0.4,1.8C26.5,55.6,27,56,27.5,56.2z M27,53.3
			c0-0.3,0.2-0.6,0.5-0.7c0.3-0.2,0.6-0.2,0.9-0.1c0.3,0.1,0.6,0.4,0.8,0.8c0.2,0.4,0.3,0.8,0.3,1.1c0,0.3-0.2,0.6-0.5,0.7
			c-0.3,0.2-0.6,0.2-0.9,0.1c-0.3-0.1-0.6-0.4-0.8-0.8C27,53.9,26.9,53.6,27,53.3z"/>
		<path class="st0" d="M32.4,48.7l1.3,2.2c0.1,0.3,0.2,0.5,0.3,0.7c0,0.4-0.1,0.7-0.5,0.9c-0.3,0.2-0.5,0.2-0.7,0
			c-0.1-0.1-0.2-0.2-0.4-0.5l-1.4-2.4l-1.1,0.6l1.4,2.4c0.3,0.5,0.5,0.8,0.8,0.9c0.5,0.3,1,0.3,1.6-0.1c0.2-0.1,0.4-0.3,0.5-0.4
			c0.1-0.1,0.2-0.3,0.3-0.6c0-0.1,0-0.2,0-0.2c0-0.1,0-0.1,0-0.2l0.3,0.6l1-0.6l-2.3-4L32.4,48.7z"/>
		<path class="st0" d="M35.1,45.7l-1,0.6l0.7,1.1l-0.6,0.3l0.4,0.8l0.6-0.3l1.4,2.5c0.1,0.3,0.3,0.4,0.5,0.5c0.3,0.1,0.7,0,1.2-0.3
			l0.5-0.3l-0.5-0.8c0,0-0.1,0-0.1,0.1c0,0-0.1,0-0.1,0.1c-0.2,0.1-0.4,0.2-0.4,0.2c-0.1,0-0.1-0.1-0.2-0.3l-1.2-2.1l0.7-0.4
			l-0.4-0.8l-0.7,0.4L35.1,45.7z"/>
		<polygon class="st0" points="27.1,62.1 26.8,61.6 25.3,62.5 24.9,61.8 26.2,61 25.9,60.5 24.6,61.3 24.3,60.7 25.7,59.9 
			25.4,59.4 23.4,60.5 25,63.3 		"/>
		<polygon class="st0" points="29.3,60.8 28,60.2 28.1,58.8 27.5,59.2 27.5,59.9 26.8,59.5 26.2,59.9 27.4,60.5 27.3,62 27.9,61.6 
			27.9,60.8 28.6,61.2 		"/>
		<path class="st0" d="M30.5,60.2c0.3-0.2,0.5-0.4,0.5-0.8c0-0.2,0-0.4-0.1-0.6l-0.5,0.3c0,0.1,0.1,0.2,0.1,0.3
			c0,0.1-0.1,0.2-0.2,0.3c-0.2,0.1-0.3,0.1-0.5,0c-0.1-0.1-0.2-0.2-0.3-0.3c-0.1-0.2-0.1-0.3-0.2-0.4c0-0.2,0-0.4,0.2-0.5
			c0.1-0.1,0.2-0.1,0.3,0c0.1,0,0.1,0.1,0.2,0.2l0.5-0.3c-0.2-0.3-0.4-0.4-0.6-0.4c-0.2,0-0.5,0-0.7,0.2c-0.3,0.2-0.5,0.4-0.5,0.7
			c-0.1,0.3,0,0.6,0.2,1c0.2,0.3,0.4,0.5,0.7,0.6C29.9,60.4,30.2,60.4,30.5,60.2z"/>
		<path class="st0" d="M31.7,57.2c0.1-0.1,0.3-0.1,0.4,0c0.1,0,0.1,0.1,0.2,0.2l0.7,1.2l0.5-0.3l-0.7-1.2c-0.1-0.2-0.2-0.3-0.2-0.4
			c-0.1-0.1-0.1-0.1-0.2-0.2c-0.1-0.1-0.2-0.1-0.4-0.1c-0.1,0-0.3,0.1-0.4,0.1c-0.1,0.1-0.2,0.1-0.3,0.3c-0.1,0.1-0.1,0.2-0.1,0.4
			l-0.6-1l-0.5,0.3l1.6,2.7l0.5-0.3L31.6,58c-0.1-0.2-0.1-0.3-0.1-0.5C31.5,57.4,31.6,57.3,31.7,57.2z"/>
		<path class="st0" d="M34,57.9c0.2,0,0.4,0,0.5-0.1c0.1-0.1,0.3-0.2,0.3-0.3c0.1-0.1,0.1-0.2,0.1-0.3c0,0,0.1,0.1,0.1,0.1
			c0,0,0.1,0.1,0.1,0.1l0.6-0.3l0-0.1c0,0-0.1,0-0.1,0c0,0-0.1-0.1-0.1-0.1c-0.1-0.1-0.1-0.2-0.1-0.2l-0.5-0.9
			c-0.1-0.2-0.3-0.4-0.5-0.3c-0.2,0-0.4,0.1-0.7,0.2c-0.3,0.2-0.5,0.4-0.6,0.7c0,0.2,0,0.3,0.1,0.5l0.5-0.3c0-0.1,0-0.2,0-0.2
			c0-0.1,0.1-0.2,0.2-0.2c0.1-0.1,0.2-0.1,0.3-0.1c0.1,0,0.1,0,0.2,0.1c0,0.1,0,0.1,0,0.2c0,0-0.1,0.1-0.2,0.2L34,56.5
			c-0.2,0.1-0.3,0.3-0.4,0.4c-0.1,0.2-0.1,0.5,0,0.7C33.7,57.8,33.8,57.9,34,57.9z M34.1,57c0-0.1,0.1-0.1,0.2-0.2l0.1-0.1
			c0.1,0,0.1-0.1,0.1-0.1c0,0,0.1-0.1,0.1-0.1l0.1,0.2c0.1,0.2,0.1,0.3,0.1,0.5c-0.1,0.1-0.1,0.2-0.3,0.3c-0.1,0-0.1,0.1-0.2,0
			c-0.1,0-0.1-0.1-0.2-0.2C34,57.2,34,57.1,34.1,57z"/>
		<path class="st0" d="M36.2,54.7c0.1-0.1,0.3-0.1,0.4,0c0.1,0,0.1,0.1,0.2,0.2l0.7,1.2l0.5-0.3l-0.8-1.4C37,54.2,36.9,54,36.7,54
			c-0.2,0-0.4,0-0.6,0.1c-0.2,0.1-0.3,0.2-0.3,0.4c0,0.1-0.1,0.2-0.1,0.3l-0.2-0.3L35,54.8l1.2,2l0.5-0.3l-0.6-1.1
			c-0.1-0.1-0.1-0.2-0.1-0.3C35.9,54.9,36,54.8,36.2,54.7z"/>
		<path class="st0" d="M38.8,53c-0.2-0.1-0.3-0.1-0.5-0.1c-0.1,0-0.2,0-0.3,0.1c-0.3,0.2-0.4,0.4-0.5,0.7c0,0.3,0,0.6,0.2,0.9
			c0.2,0.3,0.4,0.5,0.7,0.6c0.3,0.1,0.5,0.1,0.8-0.1c0.2-0.1,0.3-0.2,0.3-0.4c0-0.1,0-0.2,0.1-0.3l0.1,0.1c0.1,0.2,0.2,0.3,0.2,0.4
			c0,0.2-0.1,0.3-0.3,0.4c-0.1,0.1-0.2,0.1-0.3,0.1c0,0-0.1,0-0.2-0.1l-0.6,0.3c0.1,0.2,0.3,0.3,0.5,0.3c0.2,0,0.5-0.1,0.7-0.2
			c0.4-0.2,0.7-0.5,0.7-0.8c0-0.2-0.1-0.4-0.2-0.7l-1.1-1.9l-0.5,0.3L38.8,53z M39.2,53.7c0.1,0.2,0.2,0.4,0.1,0.5
			c0,0.1-0.1,0.3-0.2,0.3c-0.2,0.1-0.4,0.1-0.5,0c-0.1-0.1-0.2-0.2-0.2-0.3c-0.1-0.1-0.1-0.3-0.1-0.4c0-0.2,0-0.4,0.2-0.5
			c0.1-0.1,0.3-0.1,0.4,0C39,53.4,39.1,53.5,39.2,53.7z"/>
		<path class="st0" d="M28.2,64.6c0.1-0.2,0-0.5-0.2-0.8c-0.2-0.3-0.4-0.5-0.6-0.5c-0.2,0-0.5,0-0.8,0.2l-1.2,0.7l1.6,2.7l0.6-0.3
			l-0.6-1l0.6-0.3C27.9,65,28.1,64.8,28.2,64.6z M27.6,64.5c0,0.1-0.1,0.2-0.2,0.3l-0.5,0.3l-0.5-0.8l0.5-0.3
			c0.1-0.1,0.2-0.1,0.4-0.1c0.1,0,0.2,0.1,0.3,0.2C27.6,64.3,27.6,64.4,27.6,64.5z"/>
		<path class="st0" d="M29.4,63.7c0-0.2,0.1-0.3,0.3-0.5c0,0,0,0,0.1,0c0,0,0.1,0,0.1,0l-0.3-0.5c0,0,0,0,0,0c0,0,0,0,0,0
			c-0.2,0.1-0.3,0.2-0.3,0.3c0,0.1,0,0.2-0.1,0.4l-0.2-0.4l-0.5,0.3l1.2,2l0.5-0.3l-0.6-1C29.4,64,29.4,63.8,29.4,63.7z"/>
		<path class="st0" d="M31.7,61.8c-0.3-0.1-0.6-0.1-1,0.1c-0.3,0.2-0.5,0.5-0.6,0.8c0,0.3,0,0.6,0.2,0.9c0.2,0.3,0.4,0.5,0.7,0.6
			c0.3,0.1,0.6,0.1,1-0.1c0.3-0.2,0.5-0.5,0.6-0.8c0-0.3,0-0.6-0.2-0.9C32.2,62.1,32,61.9,31.7,61.8z M32,63.3
			c0,0.2-0.1,0.3-0.3,0.4c-0.2,0.1-0.3,0.1-0.5,0c-0.1-0.1-0.3-0.2-0.4-0.4c-0.1-0.2-0.2-0.4-0.1-0.5c0-0.2,0.1-0.3,0.3-0.4
			c0.2-0.1,0.3-0.1,0.5,0c0.1,0.1,0.3,0.2,0.4,0.4C32,62.9,32,63.1,32,63.3z"/>
		<path class="st0" d="M34,60.1l-0.5,0.3l0.2,0.3c-0.2-0.1-0.3-0.1-0.5-0.1c-0.1,0-0.2,0-0.3,0.1c-0.3,0.2-0.4,0.4-0.5,0.7
			c0,0.3,0,0.6,0.2,0.9c0.2,0.3,0.4,0.5,0.7,0.6c0.3,0.1,0.5,0.1,0.8-0.1c0.2-0.1,0.3-0.2,0.3-0.4c0-0.1,0-0.2,0-0.3l0.1,0.1
			c0.1,0.2,0.2,0.3,0.2,0.4c0,0.2-0.1,0.3-0.3,0.4c-0.1,0.1-0.2,0.1-0.3,0.1c0,0-0.1,0-0.1-0.1l-0.6,0.3c0.1,0.2,0.3,0.3,0.5,0.3
			c0.2,0,0.5-0.1,0.7-0.2c0.4-0.2,0.7-0.5,0.7-0.8c0-0.2-0.1-0.4-0.2-0.7L34,60.1z M34.2,62c0,0.1-0.1,0.2-0.2,0.3
			c-0.2,0.1-0.4,0.1-0.5,0c-0.1-0.1-0.2-0.2-0.2-0.3c-0.1-0.1-0.1-0.3-0.1-0.4c0-0.2,0-0.4,0.2-0.5c0.1-0.1,0.3-0.1,0.4,0
			c0.1,0.1,0.3,0.2,0.4,0.4C34.2,61.6,34.2,61.8,34.2,62z"/>
		<path class="st0" d="M35.5,60.2c0-0.2,0.1-0.3,0.3-0.5c0,0,0,0,0.1,0c0,0,0.1,0,0.1,0l-0.3-0.5c0,0,0,0,0,0c0,0,0,0,0,0
			c-0.2,0.1-0.3,0.2-0.3,0.3c0,0.1,0,0.2-0.1,0.4L35,59.6l-0.5,0.3l1.2,2l0.5-0.3l-0.6-1C35.5,60.4,35.5,60.3,35.5,60.2z"/>
		<path class="st0" d="M37.4,58.3c-0.2,0-0.4,0.1-0.7,0.2c-0.3,0.2-0.5,0.4-0.6,0.7c0,0.2,0,0.3,0.1,0.5l0.5-0.3c0-0.1,0-0.2,0-0.2
			c0-0.1,0.1-0.2,0.2-0.2c0.1-0.1,0.2-0.1,0.3-0.1c0.1,0,0.1,0,0.2,0.1c0,0.1,0,0.1,0,0.2c0,0-0.1,0.1-0.2,0.2l-0.2,0.1
			c-0.2,0.1-0.3,0.3-0.4,0.4c-0.1,0.2-0.1,0.5,0,0.7c0.1,0.2,0.3,0.3,0.4,0.3c0.2,0,0.4,0,0.5-0.1c0.1-0.1,0.3-0.2,0.3-0.3
			c0.1-0.1,0.1-0.2,0.1-0.3c0,0,0.1,0.1,0.1,0.1c0,0,0.1,0.1,0.1,0.1l0.6-0.3l0-0.1c0,0-0.1,0-0.1,0c0,0-0.1-0.1-0.1-0.1
			c-0.1-0.1-0.1-0.2-0.1-0.2L38,58.6C37.8,58.4,37.6,58.3,37.4,58.3z M37.9,60c-0.1,0.1-0.1,0.2-0.3,0.3c-0.1,0-0.1,0.1-0.2,0
			c-0.1,0-0.1-0.1-0.2-0.2c-0.1-0.1-0.1-0.2,0-0.3c0-0.1,0.1-0.1,0.2-0.2l0.1-0.1c0.1,0,0.1-0.1,0.1-0.1c0,0,0.1-0.1,0.1-0.1
			l0.1,0.2C37.9,59.8,37.9,59.9,37.9,60z"/>
		<path class="st0" d="M55.4,8.4c-0.2-0.3-0.7-0.4-1-0.5c-0.2,0-0.4,0-0.5,0c0,0-0.1,0-0.1,0c0-0.1-0.1-0.2-0.3-0.7c0,0,0,0,0-0.1
			c0.1-0.3,0.1-0.7-0.2-1.4c-0.1-0.2-0.3-0.4-0.6-0.4c-0.1,0-0.2,0-0.2,0c-0.2-0.1-0.4-0.1-0.7-0.2C51.6,5.2,51.1,5.1,51,5
			c-0.4-0.2-1.6-0.9-2.4-1l-0.1,0c-1.3-0.1-1.6-0.3-1.6-0.4c0-0.1,0-0.1,0-0.2l0.2-0.2l-0.2-0.6l-0.4,0l-0.1,0.1c0,0,0,0,0,0
			c-0.2-0.1-0.8-0.7-0.8-1.1C45.5,0.8,44.2,0,42.9,0c-1,0-1.8,0.4-2.4,1.2c-0.1,0-0.2,0-0.4,0c-1.7,0.2-1.6,1.8-1.6,2.5
			c-0.2,0.3-1.4,1.1-2.4,1.3c-0.2,0-0.6,0.1-1,0.2c-0.8,0.2-1.5,0.3-1.7,0.3c-0.7,0.2-3.8,1.8-4.1,2C28.8,7.9,28,9,28.1,9.8
			c-0.1,0.2-0.6,0.8-0.7,0.9c-0.2,0.1-0.3,0.4-0.9,1.5c-0.2,0.3-0.4,0.8-0.5,0.9c-0.2,0.1-0.2,0.4-0.4,1.2c-0.1,0.5-0.3,1.4-0.4,1.5
			c-0.7,0.6-1.4,1.8-1.7,2.4c-0.1,0.2-0.2,0.3-0.2,0.3c-0.3,0.4-0.9,0.7-1.4,1c-0.8,0.4-1.6,0.9-1.9,1.6c-1.3,3.7-2.1,4.9-3.3,6.1
			c-0.1,0.1-4.1,6.2-4.1,8.4c-0.8,0.5-2.4,2-4,6.1c-0.1,0.2-0.3,0.5-0.4,1c-0.4,0.1-0.9,0.3-1.5,0.6l-5.7,3.2l4,7.3
			c-0.2,1.1-0.3,1.9-0.2,2.3c0,0.2-0.1,0.3-0.3,0.6c-0.5,0.6-1.3,1.7-1.7,5.2c-0.1,0.3-0.3,0.8-0.4,1.4L0,64.8l1,1.7l1.2-0.7
			c0.1,0.7,0.4,1.3,1,1.6c0.1,0.1,0.2,0.2,0.4,0.3c-0.4,0.3-0.7,0.7-0.8,1.1c-0.1,0.5,0,1,0.3,1.6c0.2,0.4,0.5,0.7,0.9,0.9
			c0.3,0.2,0.7,0.3,1,0.4c-0.1,0.1-0.2,0.2-0.3,0.2c-0.1,0.1-0.2,0.2-0.3,0.3l1,1.7l0.2-0.1c0-0.1,0-0.2,0.1-0.3
			c0-0.1,0.1-0.2,0.3-0.3c0,0,0,0,0,0c0.1,0.5,0.2,1,0.4,1.5l-0.4,0.2l0.8,1.3C7,77.6,7.5,78.9,8,79.9L8.1,80c0.1,0.1,1,1,2.2,2.1
			l-0.2,0.1l0.9,1.6l0.9-0.2c0.6,0.5,1.3,1,1.9,1.5c-0.5,0.3-0.9,0.7-1,1.3c-0.1,0.5,0,1,0.3,1.6c0.2,0.4,0.5,0.7,0.9,0.9
			c0.3,0.2,0.7,0.3,1,0.4c-0.1,0.1-0.2,0.2-0.3,0.2c-0.1,0.1-0.2,0.2-0.3,0.3l1,1.7l0.2-0.1c0-0.1,0-0.2,0.1-0.3
			c0-0.1,0.2-0.2,0.4-0.3c0.3-0.2,0.5-0.3,0.7-0.4l1.4-0.8c0,0.1,0,0.2,0,0.4l0,0.1l0.1,0.1c0.1,0.2,0.3,0.5,0.5,0.8L16,92.4
			l0.9,1.5l2.5-1.5c0.3,0.8,0.5,1.5,0.5,1.8c0,0,0,0,0,0c-0.3,0.3-0.3,0.5-0.3,0.9l-1.5,0.9l0.9,1.6l0.5-0.3
			c0.1,0.2,0.2,0.3,0.3,0.4c0.1,0.4,0.1,0.5,0,1.1l0,0.1l0,0.1c0.1,0.6,0.4,0.9,0.5,1l0.1,0.1h1l0.1-1l0.2,0
			c0.5,0.3,1.1,0.5,1.4,0.6c0,0,0,0,0,0c0,0.5,1,0.9,1.2,0.9l0.3,0l0.1-0.2c0.1-0.2,0-0.4,0-0.5c0-0.2-0.1-0.4-0.2-0.6
			c-0.1-0.1-0.2-0.6-0.2-1.1l0-0.2c0.2,0,0.4-0.1,0.6-0.3c0.1-0.1,0.2-0.2,0.2-0.4c0.2-0.1,0.3-0.2,0.3-0.5c0.1-0.1,0.3-0.2,0.4-0.4
			c0.1-0.2-0.1-0.5-0.2-0.7c0-0.4,0-0.7,0-0.9c0.1-0.2,0.2-0.4,0.2-0.5l0.2-0.4l-0.4-0.2c0,0-0.1-0.1-0.1-0.2l0.1,0l0.1-0.1
			c0.2-0.2,0.2-0.5,0-0.7c0,0,0,0,0,0l0,0c0-0.2,0.1-0.5,0-1.1c0.1-0.2,0.2-0.5,0.1-0.8l0,0c0,0,0-0.1,0.1-0.1l0.1-0.2l0-0.2
			c-0.2-0.8-0.4-2.7,0.1-3.3l0-0.1c0.1-0.3,0.1-0.4,0.2-0.6c0-0.1,0-0.2,0.2-0.4l0.1-0.1c0.1-0.2,0.1-0.4,0.2-1c0.2-1.1,0.6-3,1.4-4
			c0,0,0.1,0,0.1-0.1c0.2-0.1,0.5-0.3,0.6-0.7c0.1-0.3,0.2-0.6,0.2-0.8c0.1-0.4,0.2-0.8,0.4-1.2l0.6-0.3c0.3-0.2,0.6-0.4,0.8-0.6
			c0.2-0.1,0.5-0.3,1.2-0.9c0.3-0.2,0.4-0.3,0.5-0.4c0.3-0.2,0.4-0.3,0.7-0.8c0.1-0.1,0.1-0.3,0.1-0.5c0,0,0-0.1,0-0.1
			c0.1,0,0.3,0,0.4-0.2c0.2-0.2,0.1-0.5,0-0.7c-0.1-0.2-0.2-0.4-0.2-0.9c0-0.2,0-0.2,0.5-0.4c0.1,0,0.3-0.1,0.4-0.1
			c0.6-0.2,1-1.1,1.3-1.9c0.2-0.3,0.3-0.7,0.4-0.9l0.1-0.1c0.4-0.6,0.6-0.9,0.9-1.6c0-0.1,0.1-0.2,0.1-0.3c0.2-0.6,0.6-1.7,1.3-2.1
			c0.7-0.3,0.9-0.6,1-0.9c0.1-0.3-0.1-0.5-0.2-0.6c0,0,0,0,0,0c0-0.1,0-0.2,0-0.3c0-0.3,0-0.7-0.1-1.4c0,0,0-0.1,0-0.1
			c0.1-0.1,0.2-0.2,0.3-0.3c0.2-0.2,0.2-0.6,0.3-1.1c0.1-0.9,0.2-1.6,0.8-1.7c0.3-0.1,0.5-0.2,0.5-0.6c0-0.2,0-0.4,0.1-0.6l0.3,0.5
			l0.5-0.3L41.5,57c0.1-0.3,0.1-0.5,0.1-0.5c0.2-0.3,0.3-0.5,0.3-0.7c0-0.1,0.1-0.2,0.1-0.2c0.2-0.3,0.3-0.7,0.3-1
			c0-0.2,0.1-0.4,0.2-0.6c0.2-0.3,0.1-0.6,0-0.8c0-0.2-0.1-1.1,0.3-1.9c0.6-1.2,0.7-3.1,0.8-3.8l0-0.1c0-0.1,0.2-0.6,0.3-0.9
			c0.1-0.4,0.2-0.5,0.2-0.7c0-0.3,0-0.6,0-0.9c0-0.2,0-0.4,0-0.5c0.3-0.5,0.8-2.3,0.9-3.2c0.1-0.6,0.9-2.4,1.1-2.6
			c0.2-0.2,0.1-0.5,0-1.1l0.1,0l0-3.5l3,1.9l2.9-1.6l-3.9-2c0.1-0.2,0.3-0.5,0.5-0.9c0.3-0.6,0.7-1.3,0.9-1.5c0.3-0.5,0.4-1.2,0.6-2
			c0.2-0.8,0.3-1.7,0.7-2.3c0,0,0-0.1,0.1-0.2c0.1-0.3,0.4-1.1,1.2-1.9c0.9-0.9-0.2-4.6-0.9-6c-0.3-0.6-0.1-3,1.2-5.4
			c0-0.1,0.1-0.2,0.1-0.3c0.1-0.2,0.1-0.3,0.3-0.4c0.5-0.2,0.8-0.7,0.9-1c0.1,0,0.3-0.1,0.4-0.2c1.1-0.5,1.5-0.6,1.6-0.9
			C55.5,9.1,55.7,8.7,55.4,8.4z M8.5,45.5c0.6,0,1.1,0.4,1.5,1.1c0.4,0.7,0.4,1.3,0.1,1.8c-0.2,0.3-0.6,0.6-1.1,0.9l-2.4,1.3
			c0.4-1.7,1-3.5,1.4-5C8.3,45.5,8.4,45.5,8.5,45.5z M4.5,47.4L7,46c-0.4,1.2-0.8,2.6-1.1,3.9L4.5,47.4z M6.2,70.8
			c0-0.1-0.1-0.3-0.1-0.4c0.1-0.4,0-0.7,0-1.1c0,0,0.1,0.1,0.1,0.1l0.3,0.3c0.1,0.2,0.2,0.3,0.3,0.3c0.1,0.1,0.2,0.1,0.3,0.2
			l-0.6,0.3C6.4,70.7,6.3,70.8,6.2,70.8z M5.2,70.9c-0.4-0.2-0.6-0.4-0.8-0.7c-0.1-0.2-0.2-0.4-0.1-0.6c0-0.2,0.2-0.4,0.4-0.5
			c0.1,0,0.1-0.1,0.2-0.1c0.3,0.5,0.5,0.9,0.4,1.5l0,0.1l0,0.1c0,0.1,0.1,0.2,0.1,0.3C5.3,70.9,5.2,70.9,5.2,70.9z M9.6,80.3
			l4.3-1.4l-3,2.7C10.5,81.1,10,80.7,9.6,80.3z M16.6,88.3c-0.5,0.3-1,0.3-1.3,0.2c-0.4-0.2-0.6-0.4-0.8-0.7
			c-0.1-0.2-0.2-0.4-0.1-0.6c0-0.2,0.2-0.4,0.4-0.6c0.3-0.2,0.6-0.2,0.9,0c0.2,0.1,0.4,0.3,0.6,0.6l0.3,0.3c0.1,0.2,0.2,0.3,0.3,0.3
			c0.1,0.1,0.2,0.1,0.3,0.2L16.6,88.3z M20.2,92.1c0.3-0.2,0.6-0.3,0.9-0.3c0.6-0.1,1,0.2,1.3,0.7c0.2,0.4,0.3,0.8,0,1.1
			c-0.1,0.2-0.3,0.4-0.6,0.5l-1,0.6C20.8,94.1,20.5,93.1,20.2,92.1z M39.5,59l-0.4-0.7C39,58.2,39,58.1,39,58c0-0.1,0.1-0.2,0.2-0.3
			c0.1-0.1,0.2-0.1,0.3,0c0.1,0,0.1,0.1,0.2,0.2l0.3,0.5C39.8,58.6,39.6,58.8,39.5,59z M40.5,57.9l-0.2-0.3
			c-0.1-0.1-0.1-0.2-0.1-0.3c0-0.2,0.1-0.3,0.2-0.4c0.1,0,0.2-0.1,0.2,0C40.5,57.3,40.5,57.7,40.5,57.9z M41.6,52.5
			c0,0.2,0,0.4,0,0.6c0,0-0.1,0.1-0.2,0.1c-0.1,0.1-0.2,0.1-0.3,0.1c-0.2,0-0.3-0.1-0.5-0.3L41.6,52.5z M40.5,52.7
			c-0.1-0.1-0.1-0.3,0-0.4c0-0.1,0.1-0.2,0.2-0.3c0.1-0.1,0.3-0.1,0.4-0.1c0.1,0,0.2,0.1,0.3,0.2L40.5,52.7z M53.6,9.3
			c-0.7,0.3-0.8,0.3-0.9,0.6L52.6,10l0,0c-0.1,0.1-0.2,0.3-0.4,0.4c-0.5,0.2-0.6,0.6-0.7,0.9c0,0,0,0.1,0,0.1
			c-1.3,2.3-1.7,5.1-1.2,6.2c0.9,1.8,1.3,4.6,1,5c-1,1-1.3,1.9-1.4,2.3c0,0,0,0.1,0,0.1c-0.4,0.8-0.6,1.7-0.8,2.6
			c-0.1,0.7-0.3,1.4-0.5,1.7c-0.2,0.3-0.6,1-0.9,1.6c-0.2,0.3-0.4,0.7-0.5,0.9l-0.9-0.5l0.5-6l-2.7,1.5l0,3.4l-2.9-1.8L38.4,30
			l5.3,2.8L43.3,39l1.9-1.1c0,0.1,0,0.2,0,0.3c-0.3,0.5-1.1,2.1-1.2,2.9c-0.1,1-0.6,2.5-0.7,2.7c-0.2,0.3-0.2,0.7-0.1,1.2
			c0,0.2,0.1,0.5,0,0.7c0,0.1-0.1,0.3-0.2,0.5c-0.2,0.5-0.3,0.9-0.3,1.1l-1.1-1.9c-0.2-0.4-0.4-0.6-0.5-0.8
			c-0.1-0.1-0.3-0.3-0.5-0.3c-0.2-0.1-0.5-0.1-0.7-0.1c-0.3,0-0.5,0.1-0.8,0.3c-0.2,0.1-0.4,0.3-0.6,0.5c-0.1,0.2-0.2,0.5-0.2,0.8
			L37.3,44l-1.1,0.6l3.1,5.4l1.1-0.6l-1.3-2.2c-0.2-0.3-0.3-0.7-0.2-0.9c0-0.3,0.2-0.5,0.5-0.6c0.3-0.2,0.5-0.2,0.7,0
			c0.2,0.1,0.3,0.2,0.4,0.5l1.4,2.5l0.7-0.4c-0.2,1.3-0.4,2.2-0.7,2.8c-0.1,0.2-0.2,0.5-0.2,0.7c-0.1-0.1-0.2-0.1-0.3-0.2
			c-0.2-0.1-0.3-0.1-0.5-0.1c-0.2,0-0.4,0.1-0.5,0.2c-0.3,0.2-0.5,0.4-0.6,0.7c-0.1,0.3,0,0.6,0.2,1c0.2,0.4,0.5,0.6,0.8,0.6
			c0.3,0,0.5,0,0.8-0.1c-0.1,0.2-0.1,0.5-0.1,0.7c0,0.2-0.1,0.5-0.2,0.6c-0.1,0.1-0.1,0.3-0.2,0.4c-0.1,0.2-0.1,0.3-0.2,0.6
			c0,0.1-0.1,0.2-0.1,0.3c0,0-0.1,0-0.1,0c-0.1,0-0.2,0.1-0.3,0.1c-0.1,0.1-0.2,0.2-0.3,0.3c-0.1,0.1-0.1,0.3-0.1,0.4
			c-0.1-0.1-0.2-0.1-0.3-0.1c-0.1,0-0.3,0-0.4,0.1c-0.2,0.1-0.3,0.2-0.3,0.3c0,0.1-0.1,0.2-0.1,0.3l-0.2-0.3l-0.5,0.3l1.1,2
			c-0.1,0.4-0.1,0.7-0.1,1c0,0.2,0,0.5-0.1,0.6c-0.1,0.1-0.2,0.2-0.2,0.2c-0.3,0.3-0.3,0.5-0.2,0.9c0.1,0.6,0.1,0.9,0.1,1.1
			c0,0.2,0,0.3,0,0.5c0,0.2,0.1,0.3,0.2,0.4c-0.1,0.1-0.2,0.1-0.4,0.3c-1,0.5-1.5,1.8-1.8,2.6c0,0.1-0.1,0.2-0.1,0.3
			c-0.2,0.5-0.4,0.9-0.8,1.4l-0.1,0.1c-0.2,0.2-0.3,0.6-0.5,1c-0.2,0.4-0.6,1.3-0.8,1.4c-0.1,0-0.2,0.1-0.4,0.1
			c-0.5,0.2-1.3,0.4-1.2,1.3c0.1,0.3,0.1,0.6,0.2,0.8c-0.4,0.2-0.4,0.7-0.4,0.9c0,0.1,0,0.1,0,0.1c-0.2,0.4-0.2,0.4-0.4,0.5
			c-0.1,0.1-0.4,0.2-0.7,0.5c0,0-0.1,0.1-0.1,0.1c-0.1-0.4-0.3-0.9-0.6-1.5l-6.9,4l-0.1-0.6l6.4-3.7l-1.2-2l-7.7,4.4l0.4,0.8
			l6.7-3.9l0.3,0.5l-6.2,3.6l0.7,2.3l6.9-4c0.1,0.3,0.2,0.5,0.1,0.7c-0.1,0.1-0.2,0.2-0.3,0.3c-0.1,0.1-0.2,0.1-0.4,0.2
			c0,0-0.1,0-0.1,0.1c-0.5,0.3-1.2,0.7-2.1,1.2l0.7,0.8l0.3-0.2c0,0.1,0,0.2-0.1,0.3c0,0.2-0.1,0.5-0.2,0.7
			c-0.1,0.1-0.1,0.2-0.3,0.3c-0.1,0.1-0.2,0.1-0.3,0.2c-1,1.1-1.4,3.2-1.6,4.4c-0.1,0.3-0.1,0.6-0.2,0.7c-0.3,0.3-0.3,0.5-0.4,0.8
			c0,0.1,0,0.2-0.1,0.3c-0.7,1-0.4,3.2-0.2,3.8c-0.1,0.2-0.2,0.4-0.1,0.6c0,0,0,0.1,0,0.1c0,0,0,0.1,0,0.1l-0.2,0.2l0.1,0.3
			c0.1,0.5,0.1,0.7,0,0.9l0,0.2l0,0.1c0,0.1,0,0.2,0,0.2c-0.1,0.1-0.2,0.3-0.2,0.4c0,0.3,0.1,0.6,0.3,0.8l-0.7,0.1l0.5,0.6
			c0,0.1,0,0.5,0,0.9l0,0.2l0.1,0.1c0,0,0,0,0,0l-0.1,0.1l0,0.2l-0.3,0.1l0,0.4c0,0.1,0,0.1,0,0.1c-0.1,0.1-0.2,0.1-0.4,0.1l-0.4,0
			l-0.1,1l0,0c0,0.2,0,0.4,0.1,0.6c-0.1,0-0.2-0.1-0.2-0.1l-0.2,0c-0.2-0.1-0.7-0.3-1.1-0.5l-0.1-0.1l-0.6,0.1l-0.5,0.2
			c0-0.4,0-0.7-0.2-1.1l0-0.2l-0.2-0.1c0,0-0.1-0.1-0.1-0.2l2.7-1.6c0.7-0.4,1.2-0.9,1.3-1.5c0.1-0.6,0-1.1-0.4-1.7
			c-0.3-0.5-0.6-0.8-1-1c-0.2-0.1-0.6-0.2-1-0.2l0.9-0.5L21.9,89l-2.4,1.4c-0.2-0.3-0.3-0.6-0.5-0.8c0-0.2-0.1-0.4-0.1-0.6l0.6-0.3
			c0.7-0.4,1.1-0.9,1-1.6c0-0.6-0.2-1.3-0.6-1.9c-0.6-1-1.2-1.5-2-1.6c-0.5-0.1-1,0-1.5,0.3l0.8,1.5c0.2-0.1,0.5-0.1,0.7-0.1
			c0.3,0,0.5,0.3,0.7,0.6c0.2,0.3,0.3,0.6,0.3,0.8c0,0.2-0.1,0.4-0.4,0.5c-0.2,0.1-0.4,0.1-0.6-0.1c-0.1,0-0.1-0.1-0.2-0.2
			c-0.1-0.2-0.2-0.4-0.4-0.5L17,86.1c-0.4-0.5-0.8-0.9-1.2-1.1c-0.3-0.2-0.7-0.3-1-0.3c-0.5-0.3-1.2-0.8-1.8-1.4l4.9-1.2L17,80.5
			l-4.8,1.6l3.8-3.3l-0.9-1.5l-4.7,1.6l3.7-3.4l-0.9-1.6l-4.8,4.8C8,77.9,7.7,76.9,7.5,76l5.2-3l-0.9-1.5L7,74.2
			c-0.1-0.4-0.2-0.9-0.3-1.3c0-0.1,0-0.2-0.1-0.3l2.6-1.5c0.7-0.4,1.1-0.9,1-1.6c0-0.6-0.2-1.3-0.6-1.9c-0.6-1-1.2-1.5-2-1.6
			c-0.5-0.1-1,0-1.5,0.3l0.8,1.5c0.2-0.1,0.5-0.1,0.7-0.1c0.3,0,0.5,0.3,0.7,0.6c0.2,0.3,0.3,0.6,0.3,0.8c0,0.2-0.1,0.4-0.4,0.5
			c-0.2,0.1-0.4,0.1-0.6-0.1c-0.1-0.1-0.3-0.3-0.5-0.5l-0.4-0.5c-0.4-0.5-0.8-0.9-1.2-1.1c-0.4-0.2-0.9-0.3-1.3-0.2
			c-0.3-0.2-0.5-0.4-0.8-0.6l-0.1,0C3.2,66.4,3,65.9,3,65.2l4.6-2.6l1.4,2.3l1.4-0.8l-3.7-6.4l-1.4,0.8l1.4,2.4l-3.3,1.9
			c0.1-0.2,0.1-0.4,0.2-0.5l0-0.1c0.4-3.3,1.1-4.3,1.6-4.8c0.2-0.3,0.5-0.6,0.5-1.2l0-0.1l0-0.1c0-0.2,0-0.5,0-1l2,3.7l2.4-1.3
			l-2.6-4.8l2.4-1.3c0.7-0.4,1.2-0.5,1.6-0.4c0.4,0.1,0.8,0.6,1.3,1.3l0.6,1.1c0.2,0.4,0.4,0.7,0.7,1c0.1,0.1,0.3,0.3,0.5,0.6
			l2.7-1.5l-0.2-0.3c-0.3,0-0.6-0.2-0.8-0.4c-0.2-0.2-0.4-0.5-0.7-1.1l-0.5-0.8c-0.5-0.8-0.9-1.4-1.4-1.7c-0.5-0.3-1-0.4-1.7-0.3
			c0.5-0.6,0.8-1.2,0.8-2c0-0.7-0.2-1.4-0.5-1.9c-0.3-0.5-0.6-0.9-0.9-1.2c-0.4-0.3-0.7-0.5-1.2-0.7c-0.4-0.2-0.8-0.2-1.2-0.2
			c0.1-0.2,0.2-0.4,0.2-0.4l0.1-0.1c1.8-4.7,3.6-5.6,3.8-5.8c0.2-0.2,0.2-0.7,0.2-0.7c-0.2-1,3.3-7,3.9-7.7c1.3-1.3,2.2-2.5,3.6-6.4
			c0.1-0.4,0.8-0.8,1.5-1.2c0.7-0.4,1.3-0.7,1.7-1.3c0.1-0.1,0.1-0.2,0.3-0.4c0.3-0.6,0.9-1.6,1.5-2.2c0.2-0.2,0.4-0.7,0.7-2
			c0.1-0.3,0.1-0.6,0.2-0.8c0.1-0.2,0.3-0.5,0.7-1.2c0.1-0.2,0.2-0.4,0.3-0.6l3.6,6.3l1.3-0.8l-1.5-2.6l1.3-0.8
			c0.4-0.2,0.7-0.3,0.9-0.2c0.2,0.1,0.4,0.3,0.7,0.7l0.4,0.6c0.1,0.2,0.2,0.4,0.4,0.5c0.1,0.1,0.2,0.2,0.3,0.3l1.5-0.9l-0.1-0.2
			c-0.2,0-0.3-0.1-0.5-0.2c-0.1-0.1-0.2-0.3-0.4-0.6l-0.3-0.4c-0.3-0.5-0.5-0.8-0.8-0.9c-0.3-0.2-0.6-0.2-0.9-0.1
			c0.3-0.3,0.4-0.7,0.4-1.1c0-0.4-0.1-0.7-0.3-1c-0.1-0.3-0.3-0.5-0.5-0.6C33,10,32.8,9.9,32.6,9.8c-0.3-0.1-0.6-0.1-0.9-0.1
			c-0.3,0-0.7,0.2-1.1,0.4l-2.8,1.6c0.1-0.1,0.1-0.2,0.2-0.3c0,0,1.3-1.2,1.1-1.7c-0.1-0.3,0.4-1.1,0.8-1.3c0.3-0.2,3.3-1.7,3.9-1.9
			c0.2-0.1,1-0.2,1.6-0.3c0.4-0.1,0.8-0.2,1-0.2c0.8-0.2,3.1-1.2,3.1-2.2c-0.1-1,0-1.6,0.8-1.7c0.2,0,0.3,0,0.4,0l0.1,0
			c0.2,0,0.3-0.1,0.4-0.3c0.5-0.8,1.2-1,1.7-1c1,0,1.7,0.6,1.7,0.8c0,0.7,0.7,1.5,1.3,1.8c0,0.1,0,0.2,0,0.3
			c0.1,0.7,1.2,0.9,2.4,1.1l0.1,0c0.4,0,1.3,0.5,2,0.9c0.2,0.1,0.6,0.2,1.2,0.3c0.2,0,0.4,0.1,0.5,0.1l0.1,0.1h0.3c0,0,0.1,0,0.1,0
			c0.1,0.4,0.1,0.5,0.1,0.6c0,0.1-0.1,0.3,0,0.6c0.2,0.7,0.4,1.3,1.1,1.3c0.1,0,0.2,0,0.3,0c0.1,0,0.2,0,0.3,0c0.1,0,0.2,0,0.3,0
			C54.4,9,53.8,9.2,53.6,9.3z M29.5,12.3l1.5-0.9c0.3-0.2,0.5-0.2,0.7-0.2c0.3,0,0.6,0.2,0.8,0.6c0.2,0.4,0.2,0.7,0,1
			c-0.1,0.2-0.3,0.3-0.6,0.5L30.5,14L29.5,12.3z"/>
		<polygon class="st0" points="39.1,13.9 40.5,13.1 39.1,10.7 38.9,5.3 37.4,6.2 37.7,9.8 34.7,7.7 33.1,8.7 37.7,11.4 		"/>
		<polygon class="st0" points="44.1,9.4 43.2,7.8 46.3,6 45.7,4.8 42.5,6.6 41.7,5.3 45.2,3.3 44.5,2.1 39.7,4.9 43.5,11.4 
			48.4,8.5 47.7,7.4 		"/>
	</g>
</g>
</svg>
